{
  "source": "C:\\Users\\Peter\\Desktop\\stuff\\MIUN\\quantitative_research\\video_compression\\videos\\BVI-HD\\BVI-HD_CDVL_videos\\ORIG\\Surfers_1920x1080_30fps.mp4",
  "output": "C:\\Users\\Peter\\Desktop\\stuff\\MIUN\\quantitative_research\\video_compression\\compressed_videos\\BVI-HD\\av1\\1\\Surfers_1920x1080_30fps_av1.mkv",
  "codec": "av1",
  "ok": "Input #0, mov,mp4,m4a,3gp,3g2,mj2, from 'C:\\Users\\Peter\\Desktop\\stuff\\MIUN\\quantitative_research\\video_compression\\videos\\BVI-HD\\BVI-HD_CDVL_videos\\ORIG\\Surfers_1920x1080_30fps.mp4':\n  Metadata:\n    major_brand     : isom\n    minor_version   : 512\n    compatible_brands: isomiso2avc1mp41\n    encoder         : Lavf54.28.101\n  Duration: 00:00:05.00, start: 0.000000, bitrate: 232762 kb/s\n  Stream #0:0[0x1](und): Video: h264 (High 4:4:4 Predictive) (avc1 / 0x31637661), yuv420p(progressive), 1920x1080, 232759 kb/s, 30 fps, 30 tbr, 30 tbn (default)\n    Metadata:\n      handler_name    : VideoHandler\n      vendor_id       : [0][0][0][0]\n[out#0/matroska @ 000001969d931200] Codec AVOption b:a (set bitrate (in bits/s)) has not been used for any stream. The most likely reason is either wrong type (e.g. a video option with no video streams) or that it is a private option of some decoder which was not actually used for any stream.\nStream mapping:\n  Stream #0:0 -> #0:0 (h264 (native) -> av1 (libsvtav1))\nPress [q] to stop, [?] for help\nSvt[info]: -------------------------------------------\nSvt[info]: SVT [version]:\tSVT-AV1 Encoder Lib v3.1.0-19-g6ecfe8ec\nSvt[info]: SVT [build]  :\tGCC 15.2.0\t 64 bit\nSvt[info]: LIB Build date: Aug 17 2025 11:37:13\nSvt[info]: -------------------------------------------\nSvt[info]: Level of Parallelism: 5\nSvt[info]: Number of PPCS 93\nSvt[info]: [asm level on system : up to avx2]\nSvt[info]: [asm level selected : up to avx2]\nSvt[info]: -------------------------------------------\nSvt[info]: SVT [config]: main profile\ttier (auto)\tlevel (auto)\nSvt[info]: SVT [config]: width / height / fps numerator / fps denominator \t\t: 1920 / 1080 / 30 / 1\nSvt[info]: SVT [config]: bit-depth / color format \t\t\t\t\t: 8 / YUV420\nSvt[info]: SVT [config]: preset / tune / pred struct \t\t\t\t\t: 4 / PSNR / random access\nSvt[info]: SVT [config]: gop size / mini-gop size / key-frame type \t\t\t: 161 / 16 / key frame\nSvt[info]: SVT [config]: BRC mode / target bitrate (kbps)\t\t\t\t: VBR / 1000 \nSvt[info]: SVT [config]: AQ mode / Variance Boost \t\t\t\t\t: 2 / 0\nSvt[info]: SVT [config]: sharpness / luminance-based QP bias \t\t\t\t: 0 / 0\nSvt[info]: SVT [config]: QP scale compress strength \t\t\t\t\t: 0\nSvt[info]: -------------------------------------------\nOutput #0, matroska, to 'C:\\Users\\Peter\\Desktop\\stuff\\MIUN\\quantitative_research\\video_compression\\compressed_videos\\BVI-HD\\av1\\1\\Surfers_1920x1080_30fps_av1.mkv':\n  Metadata:\n    major_brand     : isom\n    minor_version   : 512\n    compatible_brands: isomiso2avc1mp41\n    encoder         : Lavf62.3.100\n  Stream #0:0(und): Video: av1 (AV01 / 0x31305641), yuv420p(tv, progressive), 1920x1080, q=2-31, 1000 kb/s, 30 fps, 1k tbn (default)\n    Metadata:\n      encoder         : Lavc62.11.100 libsvtav1\n      handler_name    : VideoHandler\n      vendor_id       : [0][0][0][0]\n    Side data:\n      cpb: bitrate max/min/avg: 0/0/1000000 buffer size: 1000000 vbv_delay: N/A\nframe=    0 fps=0.0 q=0.0 size=       0KiB time=N/A bitrate=N/A speed=N/A elapsed=0:00:01.03    \nframe=    0 fps=0.0 q=0.0 size=       0KiB time=N/A bitrate=N/A speed=N/A elapsed=0:00:01.57    \nframe=    0 fps=0.0 q=0.0 size=       0KiB time=N/A bitrate=N/A speed=N/A elapsed=0:00:02.14    \nframe=    0 fps=0.0 q=0.0 size=       0KiB time=N/A bitrate=N/A speed=N/A elapsed=0:00:02.68    \nframe=    0 fps=0.0 q=0.0 size=       0KiB time=N/A bitrate=N/A speed=N/A elapsed=0:00:03.19    \nframe=    1 fps=0.3 q=34.0 size=       1KiB time=00:00:00.00 bitrate=N/A speed=   0x elapsed=0:00:03.72    \nframe=    1 fps=0.2 q=34.0 size=       1KiB time=00:00:00.00 bitrate=N/A speed=   0x elapsed=0:00:04.25    \nframe=    3 fps=0.6 q=51.0 size=       1KiB time=00:00:00.06 bitrate=  85.6kbits/s speed=0.014x elapsed=0:00:04.76    \nframe=    7 fps=1.3 q=50.0 size=       1KiB time=00:00:00.20 bitrate=  28.5kbits/s speed=0.0378x elapsed=0:00:05.29    \nframe=   11 fps=1.9 q=50.0 size=       1KiB time=00:00:00.33 bitrate=  17.1kbits/s speed=0.0569x elapsed=0:00:05.86    \nframe=   16 fps=2.5 q=50.0 size=       1KiB time=00:00:00.50 bitrate=  11.4kbits/s speed=0.0782x elapsed=0:00:06.39    \nframe=   19 fps=2.7 q=50.0 size=       1KiB time=00:00:00.60 bitrate=   9.5kbits/s speed=0.0868x elapsed=0:00:06.91    \nframe=   23 fps=3.1 q=51.0 size=       1KiB time=00:00:00.73 bitrate=   7.8kbits/s speed=0.0986x elapsed=0:00:07.44    \nframe=   27 fps=3.4 q=51.0 size=       1KiB time=00:00:00.86 bitrate=   6.6kbits/s speed=0.109x elapsed=0:00:07.98    \nframe=   33 fps=3.9 q=37.0 size=       1KiB time=00:00:01.06 bitrate=   5.3kbits/s speed=0.125x elapsed=0:00:08.53    \nframe=   37 fps=4.1 q=51.0 size=       1KiB time=00:00:01.20 bitrate=   4.8kbits/s speed=0.132x elapsed=0:00:09.06    \nframe=   39 fps=4.1 q=53.0 size=       1KiB time=00:00:01.26 bitrate=   4.5kbits/s speed=0.132x elapsed=0:00:09.58    \nframe=   43 fps=4.3 q=51.0 size=       1KiB time=00:00:01.40 bitrate=   4.1kbits/s speed=0.139x elapsed=0:00:10.10    \nframe=   49 fps=4.6 q=35.0 size=       1KiB time=00:00:01.60 bitrate=   3.6kbits/s speed=0.151x elapsed=0:00:10.62    \nframe=   55 fps=4.9 q=50.0 size=       1KiB time=00:00:01.80 bitrate=   3.2kbits/s speed=0.161x elapsed=0:00:11.15    \nframe=   57 fps=4.9 q=47.0 size=       1KiB time=00:00:01.86 bitrate=   3.1kbits/s speed=0.16x elapsed=0:00:11.68    \nframe=   61 fps=5.0 q=49.0 size=       1KiB time=00:00:02.00 bitrate=   2.9kbits/s speed=0.164x elapsed=0:00:12.19    \nframe=   69 fps=5.4 q=52.0 size=       1KiB time=00:00:02.26 bitrate=   2.5kbits/s speed=0.178x elapsed=0:00:12.72    \nframe=   73 fps=5.5 q=48.0 size=       1KiB time=00:00:02.40 bitrate=   2.4kbits/s speed=0.181x elapsed=0:00:13.22    \nframe=   81 fps=5.9 q=40.0 size=       1KiB time=00:00:02.66 bitrate=   2.1kbits/s speed=0.194x elapsed=0:00:13.75    \nframe=   85 fps=6.0 q=52.0 size=       1KiB time=00:00:02.80 bitrate=   2.0kbits/s speed=0.196x elapsed=0:00:14.26    \nframe=   89 fps=6.0 q=48.0 size=       1KiB time=00:00:02.93 bitrate=   1.9kbits/s speed=0.198x elapsed=0:00:14.78    \nframe=   93 fps=6.1 q=49.0 size=       1KiB time=00:00:03.06 bitrate=   1.9kbits/s speed= 0.2x elapsed=0:00:15.31    \nframe=   99 fps=6.2 q=55.0 size=       1KiB time=00:00:03.26 bitrate=   1.7kbits/s speed=0.206x elapsed=0:00:15.85    \nframe=  105 fps=6.4 q=48.0 size=       1KiB time=00:00:03.46 bitrate=   1.6kbits/s speed=0.212x elapsed=0:00:16.37    \nframe=  109 fps=6.4 q=51.0 size=       1KiB time=00:00:03.60 bitrate=   1.6kbits/s speed=0.213x elapsed=0:00:16.90    \nframe=  113 fps=6.5 q=40.0 size=       1KiB time=00:00:03.73 bitrate=   1.5kbits/s speed=0.214x elapsed=0:00:17.42    \nframe=  121 fps=6.7 q=50.0 size=       1KiB time=00:00:04.00 bitrate=   1.4kbits/s speed=0.223x elapsed=0:00:17.94    \nframe=  125 fps=6.8 q=53.0 size=       1KiB time=00:00:04.13 bitrate=   1.4kbits/s speed=0.224x elapsed=0:00:18.46    \nframe=  131 fps=6.9 q=57.0 size=       1KiB time=00:00:04.33 bitrate=   1.3kbits/s speed=0.228x elapsed=0:00:18.99    \nframe=  137 fps=7.0 q=53.0 size=       1KiB time=00:00:04.53 bitrate=   1.3kbits/s speed=0.232x elapsed=0:00:19.51    \n[out#0/matroska @ 000001969d931200] video:630KiB audio:0KiB subtitle:0KiB other streams:0KiB global headers:0KiB muxing overhead: 0.223889%\nframe=  150 fps=7.5 q=57.0 Lsize=     632KiB time=00:00:04.96 bitrate=1041.9kbits/s speed=0.248x elapsed=0:00:19.98    \n",
  "seconds": 20.415732383728027,
  "probe_out": {}
}